<svg xmlns="http://www.w3.org/2000/svg" xmlns:svg="http://www.w3.org/2000/svg" id="svg5947" width="80" height="80" version="1.1"><metadata id="metadata5952"/><g id="layer1" transform="translate(0,-972.3622)"><g id="User" transform="translate(-172.78441,627.1682)"><g id="Add" fill="#faffff" fill-opacity="1" opacity=".3" transform="translate(-296.99359,-114.792)"><path id="path701" fill="#faffff" fill-opacity="1" fill-rule="evenodd" d="m 509.778,477.486 c -12.426,0 -22.5,10.072 -22.5,22.5 0,12.426 10.074,22.5 22.5,22.5 12.428,0 22.5,-10.074 22.5,-22.5 0,-12.427 -10.072,-22.5 -22.5,-22.5 z m 11.5,25 c 0,0.549 -0.451,1 -1,1 h -6 c -0.551,0 -1.001,0.449 -1.001,1 v 6 c 0,0.549 -0.45,1 -1,1 h -5 c -0.55,0 -1,-0.451 -1,-1 v -6 c 0,-0.551 -0.45,-1 -1,-1 h -6 c -0.55,0 -1,-0.451 -1,-1 v -5 c 0,-0.551 0.45,-1 1,-1 h 6 c 0.55,0 1,-0.451 1,-1 v -6 c 0,-0.551 0.45,-1 1,-1 h 5 c 0.55,0 1,0.449 1,1 v 6 c 0,0.549 0.45,1 1.001,1 h 6 c 0.549,0 1,0.449 1,1 v 5 z" clip-rule="evenodd"/></g></g></g></svg>