<svg xmlns="http://www.w3.org/2000/svg" xmlns:svg="http://www.w3.org/2000/svg" id="svg2" width="512" height="512" version="1.1"><metadata id="metadata7"/><g id="layer2"><rect id="rect3289" width="380" height="234.85" x="66" y="138.575" fill="#4f5a64" fill-opacity="1" ry="13.893"/></g><g id="layer1" transform="translate(0,-540.36218)"><path id="path2987" fill="silver" fill-opacity="1" stroke="none" d="M 181.28125 16.71875 C 149.51007 16.71875 119.17535 22.91332 91.4375 34.15625 C 187.92922 61.76747 258.5625 150.6391 258.5625 256 C 258.5625 361.3609 187.92922 450.23259 91.4375 477.84375 C 119.17535 489.08675 149.51007 495.28125 181.28125 495.28125 C 313.4351 495.28125 420.5625 388.15384 420.5625 256 C 420.5625 123.84613 313.4351 16.71875 181.28125 16.71875 z M 261.71875 208.03125 L 275.46875 208.03125 L 301.78125 273.875 L 328.21875 208.03125 L 341.21875 208.03125 L 367.8125 273.875 L 393.84375 208.03125 L 407.46875 208.03125 L 368.84375 303.96875 L 365.90625 303.96875 L 334.65625 226.3125 L 303.125 303.96875 L 300.1875 303.96875 L 261.71875 208.03125 z" transform="translate(0,540.36218)"/><text id="text2994" x="122.857" y="844.111" fill="silver" fill-opacity="1" stroke="none" font-family="Gill Sans" font-size="90" font-stretch="normal" font-style="normal" font-variant="normal" font-weight="normal" letter-spacing="0" text-anchor="start" word-spacing="0" writing-mode="lr-tb" xml:space="preserve" style="text-align:start;line-height:125%;-inkscape-font-specification:Gill Sans"><tspan id="tspan2996" x="122.857" y="844.111" font-family="Gill Sans" font-size="140" font-stretch="normal" font-style="normal" font-variant="normal" font-weight="normal" text-anchor="start" writing-mode="lr-tb" style="text-align:start;line-height:125%;-inkscape-font-specification:Gill Sans">N</tspan></text></g></svg>