<svg xmlns="http://www.w3.org/2000/svg" xmlns:svg="http://www.w3.org/2000/svg" id="svg5947" width="80" height="80" version="1.1"><metadata id="metadata5952"/><g id="layer1" transform="translate(0,-972.3622)"><g id="User" transform="translate(-172.78441,627.1682)"><g id="Compose_1_" fill="#fff" fill-opacity="1" opacity=".3" transform="translate(-177.86984,65.938)"><g id="g860" fill="#fff" fill-opacity="1"><path id="path862" fill="#fff" fill-opacity="1" d="m 389.352,328.205 c -0.547,0.138 -0.854,-0.188 -0.68,-0.725 l 1.619,-4.997 c 0.174,-0.538 0.645,-1.304 1.043,-1.703 l 16.438,-16.438 c 0.398,-0.399 1.053,-0.399 1.451,0 l 3.633,3.632 c 0.398,0.399 0.398,1.053 0,1.452 l -16.438,16.438 c -0.4,0.399 -1.176,0.84 -1.723,0.979 l -5.343,1.362 z"/><path id="path864" fill="#fff" fill-opacity="1" d="m 397.869,327.317 c -0.664,0.664 -1.762,1.288 -2.668,1.519 l -5.346,1.361 c -0.248,0.062 -0.498,0.094 -0.742,0.094 -0.838,0 -1.592,-0.373 -2.064,-1.024 -0.488,-0.674 -0.609,-1.556 -0.33,-2.42 l 1.619,-4.996 c 0.275,-0.852 0.91,-1.89 1.545,-2.523 l 13.197,-13.197 v -6.905 c 0,-0.564 -0.465,-1.027 -1.027,-1.027 h -19.518 l -14.381,14.38 v 26.707 c 0,0.564 0.463,1.027 1.027,1.027 h 32.869 c 0.564,0 1.027,-0.462 1.027,-1.027 v -17.177 l -5.208,5.208 z m -15.334,-14.738 h -12.326 l 12.326,-12.326 v 12.326 z"/></g></g></g></g></svg>