<svg xmlns="http://www.w3.org/2000/svg" xmlns:svg="http://www.w3.org/2000/svg" id="svg5947" width="80" height="80" version="1.1"><metadata id="metadata5952"/><g id="layer1" transform="translate(0,-972.3622)"><g id="User" transform="translate(-172.78441,627.1682)"><g id="Folder" fill="#fff" fill-opacity="1" opacity=".3" transform="translate(-177.86932,-114.793)"><path id="path837" fill="#fff" fill-opacity="1" d="m 378.923,493.986 c -1.41,0 -2.684,1.188 -2.781,2.594 l -0.932,12.574 c -0.059,0.787 -0.717,1.389 -1.495,1.389 -0.037,0 -0.075,-0.002 -0.112,-0.004 -0.826,-0.063 -1.446,-0.781 -1.385,-1.607 l 0.932,-12.566 c 0.205,-2.963 2.796,-5.379 5.773,-5.379 h 28.369 c 0,-0.465 0,-0.873 0,-1.031 0,-1.635 -1.654,-2.973 -3.309,-2.973 h -17.744 c 0,0 0,-1.193 0,-2.543 0,-1.35 -1.354,-2.453 -3.008,-2.453 h -12.07 c -1.654,0 -3.008,1.35 -3.008,3 v 30 c 0,1.65 1.354,3 3.008,3 h 37.098 c 1.655,0 3.122,-1.346 3.262,-2.99 l 1.623,-19.021 c 0.065,-0.766 -0.177,-1.459 -0.612,-1.988 h -33.609 z"/></g></g></g></svg>